<svg width="1280" height="720" xmlns="http://www.w3.org/2000/svg" xmlns:xlink="http://www.w3.org/1999/xlink" overflow="hidden"><defs><filter id="fx0" x="-10%" y="-10%" width="120%" height="120%" filterUnits="userSpaceOnUse" primitiveUnits="userSpaceOnUse"><feComponentTransfer color-interpolation-filters="sRGB"><feFuncR type="discrete" tableValues="0 0"/><feFuncG type="discrete" tableValues="0 0"/><feFuncB type="discrete" tableValues="0 0"/><feFuncA type="linear" slope="0.301961" intercept="0"/></feComponentTransfer><feGaussianBlur stdDeviation="1.07015 1.07015"/></filter><linearGradient x1="536.293" y1="29.9563" x2="476.72" y2="213.808" gradientUnits="userSpaceOnUse" spreadMethod="pad" id="fill1"><stop offset="0" stop-color="#DF8908"/><stop offset="1" stop-color="#B415FF"/></linearGradient><clipPath id="clip2"><rect x="2" y="2" width="188" height="54"/></clipPath></defs><g><rect x="0" y="0" width="1280" height="720" fill="#FFFFFF"/><g><g><g><path d="M0 38.5152C0 34.7735 3.25517 31.8642 6.97336 32.2827L117.826 44.7596C132.037 46.3591 144.073 34.3858 142.548 20.167 140.959 5.35623 125.6-3.78503 111.824 1.88124L8.65767 44.3156C4.53 46.0134 0 42.9784 0 38.5152Z" fill="url(#fill1)" transform="matrix(1 0 0 1.01418 640 337)"/></g></g></g><g clip-path="url(#clip2)" filter="url(#fx0)" transform="translate(532 334)"><g><path d="M126.188 36.7731C124.758 36.7731 123.539 36.8785 122.531 37.0895 121.523 37.3004 120.703 37.6168 120.07 38.0387 119.438 38.4606 118.975 38.9703 118.682 39.568 118.389 40.1656 118.242 40.8512 118.242 41.6246 118.242 42.9371 118.658 43.9684 119.49 44.7184 120.322 45.4684 121.477 45.8434 122.953 45.8434 124.195 45.8434 125.338 45.527 126.381 44.8942 127.424 44.2614 128.484 43.3356 129.563 42.1168L129.563 36.7731ZM124.395 16.734C126.856 16.734 128.959 16.9742 130.705 17.4547 132.451 17.9352 133.887 18.6735 135.012 19.6696 136.137 20.6657 136.957 21.9489 137.473 23.5192 137.988 25.0895 138.246 26.9528 138.246 29.109L138.246 50.2028C138.246 50.5309 138.129 50.7887 137.895 50.9762 137.66 51.1637 137.291 51.2985 136.787 51.3805 136.283 51.4625 135.539 51.5035 134.555 51.5035 133.5 51.5035 132.732 51.4625 132.252 51.3805 131.772 51.2985 131.432 51.1637 131.232 50.9762 131.033 50.7887 130.934 50.5309 130.934 50.2028L130.934 47.7067C129.645 49.0895 128.174 50.1676 126.522 50.941 124.869 51.7145 123.035 52.1012 121.02 52.1012 119.356 52.1012 117.826 51.8844 116.432 51.4508 115.037 51.0172 113.83 50.3727 112.811 49.5172 111.791 48.6617 111 47.6012 110.438 46.3356 109.875 45.0699 109.594 43.5934 109.594 41.9059 109.594 40.0778 109.951 38.4899 110.666 37.1422 111.381 35.7946 112.447 34.6813 113.865 33.8024 115.283 32.9235 117.047 32.2731 119.156 31.8512 121.266 31.4293 123.715 31.2184 126.504 31.2184L129.563 31.2184 129.563 29.3199C129.563 28.3356 129.463 27.4742 129.264 26.736 129.065 25.9977 128.736 25.3824 128.279 24.8903 127.822 24.3981 127.213 24.0348 126.451 23.8004 125.69 23.566 124.746 23.4489 123.621 23.4489 122.145 23.4489 120.826 23.6129 119.666 23.941 118.506 24.2692 117.481 24.6324 116.59 25.0309 115.699 25.4293 114.955 25.7926 114.357 26.1207 113.76 26.4489 113.273 26.6129 112.898 26.6129 112.641 26.6129 112.412 26.5309 112.213 26.3668 112.014 26.2028 111.85 25.9684 111.721 25.6637 111.592 25.359 111.492 24.984 111.422 24.5387 111.352 24.0934 111.316 23.6012 111.316 23.0621 111.316 22.3356 111.375 21.7614 111.492 21.3395 111.609 20.9176 111.832 20.5367 112.16 20.1969 112.488 19.8571 113.063 19.4821 113.883 19.0719 114.703 18.6617 115.664 18.2809 116.766 17.9293 117.867 17.5778 119.068 17.2906 120.369 17.068 121.67 16.8453 123.012 16.734 124.395 16.734ZM71.668 16.734C72.9571 16.734 74.1172 16.8688 75.1485 17.1383 76.1797 17.4078 77.0997 17.7946 77.9083 18.2985 78.7169 18.8024 79.4141 19.4059 80.0001 20.109 80.586 20.8121 81.0782 21.5973 81.4766 22.4645 82.4141 21.4567 83.334 20.5895 84.2364 19.8629 85.1387 19.1364 86.0294 18.5446 86.9083 18.0875 87.7872 17.6305 88.6661 17.2906 89.545 17.068 90.4239 16.8453 91.3204 16.734 92.2344 16.734 94.3204 16.734 96.0782 17.0856 97.5079 17.7887 98.9376 18.4918 100.092 19.4469 100.971 20.6539 101.85 21.861 102.477 23.2731 102.852 24.8903 103.227 26.5074 103.414 28.2184 103.414 30.0231L103.414 50.0973C103.414 50.3317 103.344 50.5367 103.203 50.7125 103.063 50.8883 102.828 51.0348 102.5 51.152 102.172 51.2692 101.727 51.3571 101.164 51.4156 100.602 51.4742 99.8868 51.5035 99.0196 51.5035 98.129 51.5035 97.4024 51.4742 96.8399 51.4156 96.2774 51.3571 95.8262 51.2692 95.4864 51.152 95.1465 51.0348 94.9122 50.8883 94.7833 50.7125 94.6544 50.5367 94.5899 50.3317 94.5899 50.0973L94.5899 31.4996C94.5899 30.4449 94.4903 29.484 94.2911 28.6168 94.0919 27.7496 93.7872 27.0055 93.377 26.3844 92.9669 25.7633 92.4512 25.2828 91.8301 24.943 91.2091 24.6031 90.4649 24.4332 89.5977 24.4332 88.543 24.4332 87.4766 24.8434 86.3985 25.6637 85.3204 26.484 84.1485 27.6793 82.8829 29.2496L82.8829 50.0973C82.8829 50.3317 82.8126 50.5367 82.6719 50.7125 82.5313 50.8883 82.2911 51.0348 81.9512 51.152 81.6114 51.2692 81.1602 51.3571 80.5977 51.4156 80.0352 51.4742 79.3321 51.5035 78.4883 51.5035 77.6212 51.5035 76.9063 51.4742 76.3438 51.4156 75.7813 51.3571 75.3301 51.2692 74.9903 51.152 74.6505 51.0348 74.4102 50.8883 74.2696 50.7125 74.129 50.5367 74.0587 50.3317 74.0587 50.0973L74.0587 31.4996C74.0587 30.4449 73.959 29.484 73.7598 28.6168 73.5606 27.7496 73.2618 27.0055 72.8633 26.3844 72.4649 25.7633 71.9493 25.2828 71.3165 24.943 70.6837 24.6031 69.9454 24.4332 69.1016 24.4332 68.0235 24.4332 66.9454 24.8434 65.8672 25.6637 64.7891 26.484 63.629 27.6793 62.3868 29.2496L62.3868 50.0973C62.3868 50.3317 62.3165 50.5367 62.1758 50.7125 62.0352 50.8883 61.795 51.0348 61.4551 51.152 61.1153 51.2692 60.6641 51.3571 60.1016 51.4156 59.5391 51.4742 58.8243 51.5035 57.9571 51.5035 57.0899 51.5035 56.3751 51.4742 55.8126 51.4156 55.2501 51.3571 54.7989 51.2692 54.459 51.152 54.1192 51.0348 53.879 50.8883 53.7383 50.7125 53.5977 50.5367 53.5274 50.3317 53.5274 50.0973L53.5274 18.7379C53.5274 18.5035 53.586 18.2985 53.7032 18.1227 53.8204 17.9469 54.0313 17.8004 54.336 17.6832 54.6407 17.566 55.0333 17.4781 55.5137 17.4196 55.9942 17.361 56.5977 17.3317 57.3243 17.3317 58.0743 17.3317 58.6954 17.361 59.1876 17.4196 59.6797 17.4781 60.0606 17.566 60.3301 17.6832 60.5997 17.8004 60.793 17.9469 60.9102 18.1227 61.0274 18.2985 61.086 18.5035 61.086 18.7379L61.086 22.359C62.8204 20.484 64.5489 19.0778 66.2715 18.1403 67.9942 17.2028 69.793 16.734 71.668 16.734ZM26.4024 14.484 19.9688 33.8199 32.8712 33.8199 26.4376 14.484ZM181.523 5.65979C182.32 5.65979 182.988 5.68909 183.527 5.74768 184.066 5.80627 184.482 5.90588 184.775 6.04651 185.068 6.18713 185.273 6.3512 185.391 6.5387 185.508 6.7262 185.566 6.93713 185.566 7.17151L185.566 48.0582C185.566 48.5973 185.473 49.0778 185.285 49.4996 185.098 49.9215 184.846 50.2731 184.529 50.5543 184.213 50.8356 183.838 51.0406 183.404 51.1696 182.971 51.2985 182.531 51.3629 182.086 51.3629L178.148 51.3629C177.328 51.3629 176.619 51.2809 176.022 51.1168 175.424 50.9528 174.873 50.6539 174.369 50.2203 173.865 49.7867 173.379 49.2008 172.91 48.4625 172.441 47.7242 171.914 46.7692 171.328 45.5973L160.008 24.3278C159.352 23.0621 158.684 21.6969 158.004 20.2321 157.324 18.7672 156.715 17.3434 156.176 15.9606L156.106 15.9606C156.199 17.6481 156.27 19.3297 156.316 21.0055 156.363 22.6813 156.387 24.4098 156.387 26.191L156.387 49.9918C156.387 50.2262 156.322 50.4371 156.193 50.6246 156.065 50.8121 155.842 50.9703 155.525 51.0992 155.209 51.2281 154.781 51.3278 154.242 51.3981 153.703 51.4684 153.012 51.5035 152.168 51.5035 151.348 51.5035 150.668 51.4684 150.129 51.3981 149.59 51.3278 149.168 51.2281 148.863 51.0992 148.559 50.9703 148.348 50.8121 148.231 50.6246 148.113 50.4371 148.055 50.2262 148.055 49.9918L148.055 9.1051C148.055 8.00354 148.377 7.17737 149.022 6.62659 149.666 6.07581 150.457 5.80042 151.395 5.80042L156.352 5.80042C157.242 5.80042 157.992 5.87659 158.602 6.02893 159.211 6.18127 159.756 6.43323 160.236 6.78479 160.717 7.13635 161.168 7.62268 161.59 8.24377 162.012 8.86487 162.445 9.63245 162.891 10.5465L171.75 27.1754C172.266 28.1832 172.775 29.1735 173.279 30.1461 173.783 31.1188 174.27 32.0914 174.738 33.0641 175.207 34.0367 175.664 34.9918 176.109 35.9293 176.555 36.8668 176.988 37.8043 177.41 38.7418L177.445 38.7418C177.375 37.1012 177.322 35.3903 177.287 33.609 177.252 31.8278 177.234 30.1285 177.234 28.5114L177.234 7.17151C177.234 6.93713 177.305 6.7262 177.445 6.5387 177.586 6.3512 177.82 6.18713 178.148 6.04651 178.477 5.90588 178.91 5.80627 179.449 5.74768 179.988 5.68909 180.68 5.65979 181.523 5.65979ZM26.543 5.58948C27.9258 5.58948 29.0274 5.60706 29.8477 5.64221 30.668 5.67737 31.3067 5.7594 31.7637 5.88831 32.2208 6.01721 32.5489 6.21057 32.7481 6.46838 32.9473 6.7262 33.1172 7.07776 33.2579 7.52307L47.3204 47.8473C47.6016 48.691 47.7774 49.359 47.8477 49.8512 47.918 50.3434 47.8243 50.7125 47.5665 50.9586 47.3087 51.2047 46.8516 51.3571 46.1954 51.4156 45.5391 51.4742 44.6368 51.5035 43.4883 51.5035 42.293 51.5035 41.3614 51.486 40.6934 51.4508 40.0255 51.4156 39.5157 51.3453 39.1641 51.2399 38.8126 51.1344 38.5665 50.9879 38.4258 50.8004 38.2852 50.6129 38.168 50.3668 38.0743 50.0621L35.0157 40.9215 17.9298 40.9215 15.0469 49.816C14.9532 50.1442 14.8301 50.4196 14.6778 50.6422 14.5255 50.8649 14.2794 51.0406 13.9395 51.1696 13.5997 51.2985 13.1192 51.3864 12.4981 51.4332 11.877 51.4801 11.0626 51.5035 10.0548 51.5035 8.97663 51.5035 8.13288 51.4684 7.5235 51.3981 6.91413 51.3278 6.49225 51.1578 6.25788 50.8883 6.0235 50.6188 5.94147 50.2379 6.01178 49.7457 6.0821 49.2535 6.25788 48.5973 6.53913 47.777L20.5665 7.4176C20.7071 7.01917 20.8712 6.6969 21.0587 6.45081 21.2462 6.20471 21.545 6.01721 21.9551 5.88831 22.3653 5.7594 22.9337 5.67737 23.6602 5.64221 24.3868 5.60706 25.3477 5.58948 26.543 5.58948Z" stroke="#5B9BD5" stroke-linejoin="round" stroke-miterlimit="10" fill="#FFFFFF" fill-rule="evenodd"/></g></g><path d="M658.188 368.812C656.758 368.812 655.539 368.917 654.531 369.128 653.523 369.339 652.703 369.655 652.07 370.077 651.438 370.499 650.975 371.009 650.682 371.607 650.389 372.204 650.242 372.89 650.242 373.663 650.242 374.976 650.658 376.007 651.49 376.757 652.322 377.507 653.477 377.882 654.953 377.882 656.195 377.882 657.338 377.566 658.381 376.933 659.424 376.3 660.484 375.374 661.563 374.155L661.563 368.812ZM656.395 348.773C658.856 348.773 660.959 349.013 662.705 349.493 664.451 349.974 665.887 350.712 667.012 351.708 668.137 352.704 668.957 353.987 669.473 355.558 669.988 357.128 670.246 358.991 670.246 361.148L670.246 382.241C670.246 382.57 670.129 382.827 669.895 383.015 669.66 383.202 669.291 383.337 668.787 383.419 668.283 383.501 667.539 383.542 666.555 383.542 665.5 383.542 664.732 383.501 664.252 383.419 663.772 383.337 663.432 383.202 663.232 383.015 663.033 382.827 662.934 382.57 662.934 382.241L662.934 379.745C661.645 381.128 660.174 382.206 658.522 382.98 656.869 383.753 655.035 384.14 653.02 384.14 651.356 384.14 649.826 383.923 648.432 383.489 647.037 383.056 645.83 382.411 644.811 381.556 643.791 380.7 643 379.64 642.438 378.374 641.875 377.109 641.594 375.632 641.594 373.945 641.594 372.116 641.951 370.529 642.666 369.181 643.381 367.833 644.447 366.72 645.865 365.841 647.283 364.962 649.047 364.312 651.156 363.89 653.266 363.468 655.715 363.257 658.504 363.257L661.563 363.257 661.563 361.359C661.563 360.374 661.463 359.513 661.264 358.775 661.065 358.036 660.736 357.421 660.279 356.929 659.822 356.437 659.213 356.073 658.451 355.839 657.69 355.605 656.746 355.487 655.621 355.487 654.145 355.487 652.826 355.652 651.666 355.98 650.506 356.308 649.481 356.671 648.59 357.07 647.699 357.468 646.955 357.831 646.357 358.159 645.76 358.487 645.273 358.652 644.898 358.652 644.641 358.652 644.412 358.57 644.213 358.405 644.014 358.241 643.85 358.007 643.721 357.702 643.592 357.398 643.492 357.023 643.422 356.577 643.352 356.132 643.316 355.64 643.316 355.101 643.316 354.374 643.375 353.8 643.492 353.378 643.609 352.956 643.832 352.575 644.16 352.236 644.488 351.896 645.063 351.521 645.883 351.111 646.703 350.7 647.664 350.32 648.766 349.968 649.867 349.616 651.068 349.329 652.369 349.107 653.67 348.884 655.012 348.773 656.395 348.773ZM603.668 348.773C604.957 348.773 606.117 348.907 607.148 349.177 608.18 349.446 609.1 349.833 609.908 350.337 610.717 350.841 611.414 351.445 612 352.148 612.586 352.851 613.078 353.636 613.477 354.503 614.414 353.495 615.334 352.628 616.236 351.902 617.139 351.175 618.029 350.583 618.908 350.126 619.787 349.669 620.666 349.329 621.545 349.107 622.424 348.884 623.32 348.773 624.234 348.773 626.32 348.773 628.078 349.124 629.508 349.827 630.938 350.53 632.092 351.486 632.971 352.693 633.85 353.9 634.477 355.312 634.852 356.929 635.227 358.546 635.414 360.257 635.414 362.062L635.414 382.136C635.414 382.37 635.344 382.575 635.203 382.751 635.063 382.927 634.828 383.073 634.5 383.191 634.172 383.308 633.727 383.396 633.164 383.454 632.602 383.513 631.887 383.542 631.02 383.542 630.129 383.542 629.402 383.513 628.84 383.454 628.277 383.396 627.826 383.308 627.486 383.191 627.147 383.073 626.912 382.927 626.783 382.751 626.654 382.575 626.59 382.37 626.59 382.136L626.59 363.538C626.59 362.484 626.49 361.523 626.291 360.655 626.092 359.788 625.787 359.044 625.377 358.423 624.967 357.802 624.451 357.321 623.83 356.982 623.209 356.642 622.465 356.472 621.598 356.472 620.543 356.472 619.477 356.882 618.398 357.702 617.32 358.523 616.148 359.718 614.883 361.288L614.883 382.136C614.883 382.37 614.813 382.575 614.672 382.751 614.531 382.927 614.291 383.073 613.951 383.191 613.611 383.308 613.16 383.396 612.598 383.454 612.035 383.513 611.332 383.542 610.488 383.542 609.621 383.542 608.906 383.513 608.344 383.454 607.781 383.396 607.33 383.308 606.99 383.191 606.65 383.073 606.41 382.927 606.27 382.751 606.129 382.575 606.059 382.37 606.059 382.136L606.059 363.538C606.059 362.484 605.959 361.523 605.76 360.655 605.561 359.788 605.262 359.044 604.863 358.423 604.465 357.802 603.949 357.321 603.316 356.982 602.684 356.642 601.945 356.472 601.102 356.472 600.023 356.472 598.945 356.882 597.867 357.702 596.789 358.523 595.629 359.718 594.387 361.288L594.387 382.136C594.387 382.37 594.316 382.575 594.176 382.751 594.035 382.927 593.795 383.073 593.455 383.191 593.115 383.308 592.664 383.396 592.102 383.454 591.539 383.513 590.824 383.542 589.957 383.542 589.09 383.542 588.375 383.513 587.813 383.454 587.25 383.396 586.799 383.308 586.459 383.191 586.119 383.073 585.879 382.927 585.738 382.751 585.598 382.575 585.527 382.37 585.527 382.136L585.527 350.777C585.527 350.542 585.586 350.337 585.703 350.161 585.82 349.986 586.031 349.839 586.336 349.722 586.641 349.605 587.033 349.517 587.514 349.458 587.994 349.4 588.598 349.37 589.324 349.37 590.074 349.37 590.695 349.4 591.188 349.458 591.68 349.517 592.061 349.605 592.33 349.722 592.6 349.839 592.793 349.986 592.91 350.161 593.027 350.337 593.086 350.542 593.086 350.777L593.086 354.398C594.82 352.523 596.549 351.116 598.272 350.179 599.994 349.241 601.793 348.773 603.668 348.773ZM558.402 346.523 551.969 365.859 564.871 365.859 558.438 346.523ZM713.523 337.698C714.32 337.698 714.988 337.728 715.527 337.786 716.066 337.845 716.482 337.945 716.775 338.085 717.068 338.226 717.273 338.39 717.391 338.577 717.508 338.765 717.566 338.976 717.566 339.21L717.566 380.097C717.566 380.636 717.473 381.116 717.285 381.538 717.098 381.96 716.846 382.312 716.529 382.593 716.213 382.874 715.838 383.079 715.404 383.208 714.971 383.337 714.531 383.402 714.086 383.402L710.148 383.402C709.328 383.402 708.619 383.32 708.022 383.155 707.424 382.991 706.873 382.693 706.369 382.259 705.865 381.825 705.379 381.239 704.91 380.501 704.441 379.763 703.914 378.808 703.328 377.636L692.008 356.366C691.352 355.101 690.684 353.736 690.004 352.271 689.324 350.806 688.715 349.382 688.176 347.999L688.106 347.999C688.199 349.687 688.27 351.368 688.316 353.044 688.363 354.72 688.387 356.448 688.387 358.23L688.387 382.03C688.387 382.265 688.322 382.476 688.193 382.663 688.065 382.851 687.842 383.009 687.525 383.138 687.209 383.267 686.781 383.366 686.242 383.437 685.703 383.507 685.012 383.542 684.168 383.542 683.348 383.542 682.668 383.507 682.129 383.437 681.59 383.366 681.168 383.267 680.863 383.138 680.559 383.009 680.348 382.851 680.231 382.663 680.113 382.476 680.055 382.265 680.055 382.03L680.055 341.144C680.055 340.042 680.377 339.216 681.022 338.665 681.666 338.114 682.457 337.839 683.395 337.839L688.352 337.839C689.242 337.839 689.992 337.915 690.602 338.068 691.211 338.22 691.756 338.472 692.236 338.823 692.717 339.175 693.168 339.661 693.59 340.282 694.012 340.904 694.445 341.671 694.891 342.585L703.75 359.214C704.266 360.222 704.775 361.212 705.279 362.185 705.783 363.157 706.27 364.13 706.738 365.103 707.207 366.075 707.664 367.03 708.109 367.968 708.555 368.905 708.988 369.843 709.41 370.78L709.445 370.78C709.375 369.14 709.322 367.429 709.287 365.648 709.252 363.866 709.234 362.167 709.234 360.55L709.234 339.21C709.234 338.976 709.305 338.765 709.445 338.577 709.586 338.39 709.82 338.226 710.148 338.085 710.477 337.945 710.91 337.845 711.449 337.786 711.988 337.728 712.68 337.698 713.523 337.698ZM558.543 337.628C559.926 337.628 561.027 337.646 561.848 337.681 562.668 337.716 563.307 337.798 563.764 337.927 564.221 338.056 564.549 338.249 564.748 338.507 564.947 338.765 565.117 339.116 565.258 339.562L579.32 379.886C579.602 380.73 579.777 381.398 579.848 381.89 579.918 382.382 579.824 382.751 579.566 382.997 579.309 383.243 578.852 383.396 578.195 383.454 577.539 383.513 576.637 383.542 575.488 383.542 574.293 383.542 573.361 383.525 572.693 383.489 572.025 383.454 571.516 383.384 571.164 383.279 570.813 383.173 570.566 383.027 570.426 382.839 570.285 382.652 570.168 382.405 570.074 382.101L567.016 372.96 549.93 372.96 547.047 381.855C546.953 382.183 546.83 382.458 546.678 382.681 546.525 382.904 546.279 383.079 545.94 383.208 545.6 383.337 545.119 383.425 544.498 383.472 543.877 383.519 543.063 383.542 542.055 383.542 540.977 383.542 540.133 383.507 539.523 383.437 538.914 383.366 538.492 383.196 538.258 382.927 538.023 382.657 537.941 382.277 538.012 381.784 538.082 381.292 538.258 380.636 538.539 379.816L552.566 339.456C552.707 339.058 552.871 338.736 553.059 338.489 553.246 338.243 553.545 338.056 553.955 337.927 554.365 337.798 554.934 337.716 555.66 337.681 556.387 337.646 557.348 337.628 558.543 337.628Z" stroke="#5B9BD5" stroke-linejoin="round" stroke-miterlimit="10" fill="#FFFFFF" fill-rule="evenodd"/><text fill="#000000" fill-opacity="0" font-family="Arial,Arial_MSFontService,sans-serif" font-size="46.5117" x="537.987" y="378.326">AmaN</text></g></svg>